<svg width="107" height="103" viewBox="0 0 107 103" fill="none" xmlns="http://www.w3.org/2000/svg">
<rect width="74.2597" height="74.2597" transform="matrix(0.720445 -0.693512 0.720445 0.693512 0 51.5)" fill="#FFD973"/>
<path d="M49.3977 27.666C52.8322 27.5489 56.2624 27.4275 59.6969 27.3104C61.8552 27.1586 67.204 27.0892 72.42 30.4764C73.9488 31.4696 77.0621 33.5513 78.9978 37.6584C81.6015 43.1881 80.1969 48.4141 79.82 49.7326C78.8265 53.2239 76.9893 55.4401 76.5311 55.9778C75.9873 56.611 74.27 58.515 71.3922 59.9332C70.0689 60.5837 68.7028 61.0304 66.87 61.3904C63.1742 62.1147 57.4401 62.1147 53.7143 61.5986C53.2647 61.5379 52.1513 61.3731 51.2477 62.0149C50.3912 62.6264 50.1171 63.6803 50.0143 64.3049V80.3343H38.5032C38.5032 71.244 38.5032 62.1537 38.5032 53.0634C42.8884 52.9246 47.2736 52.7858 51.6588 52.647C52.7422 52.6123 56.1939 53.0157 60.7076 52.595C65.0542 52.1917 66.1462 51.5238 66.87 50.8429C68.8998 48.9346 69.5593 45.452 68.4545 42.8802C68.3089 42.5419 67.7607 41.2668 66.5017 40.278C64.8272 38.9595 62.3006 38.4564 62.3006 38.4564C62.3006 38.4564 57.9882 37.7842 53.8514 38.4001C52.1727 38.6473 50.8494 39.0636 50.0572 39.3412C50.0229 42.0822 49.9886 44.8231 49.9544 47.5641C46.1858 47.5294 42.4173 47.4947 38.6488 47.46C38.6017 39.2675 38.5503 31.0706 38.5032 22.878C42.1347 22.878 45.7662 22.878 49.3977 22.878V27.666Z" fill="#101113"/>
</svg>
